<?xml version="1.0" encoding="utf-8"?>
<!-- Generator: Adobe Illustrator 20.0.0, SVG Export Plug-In . SVG Version: 6.00 Build 0)  -->
<svg version="1.1" id="Layer_1" xmlns="http://www.w3.org/2000/svg" xmlns:xlink="http://www.w3.org/1999/xlink" x="0px" y="0px"
	 viewBox="0 0 48 44.8" style="enable-background:new 0 0 48 44.8;" xml:space="preserve">
<style type="text/css">
	.st0{fill:url(#SVGID_1_);}
	.st1{clip-path:url(#SVGID_3_);fill:url(#SVGID_4_);}
	.st2{fill:none;stroke:#000000;stroke-width:1.9124;stroke-linecap:round;}
</style>
<linearGradient id="SVGID_1_" gradientUnits="userSpaceOnUse" x1="165.4155" y1="636.3668" x2="165.4155" y2="636.3189" gradientTransform="matrix(1004 0 0 -938 -166053.1875 596912)">
	<stop  offset="0" style="stop-color:#00F0FF"/>
	<stop  offset="1" style="stop-color:#0070E0"/>
</linearGradient>
<path class="st0" d="M2.9,44.8C1.3,44.8,0,43.6,0,42V2.9C0,1.3,1.3,0,2.9,0h42.3C46.7,0,48,1.3,48,2.9V42c0,1.6-1.3,2.9-2.9,2.9"/>
<g>
	<defs>
		<path id="SVGID_2_" d="M24,0c-3.3,7.5-4.8,21.8-4.8,24.2c0,1,0.5,1.4,1.4,1.4h4.8c1,0,1.4,0.5,1.4,1.4c0,9.1,0,9.1,1.4,17.8h20.2
			V0H24z"/>
	</defs>
	<clipPath id="SVGID_3_">
		<use xlink:href="#SVGID_2_"  style="overflow:visible;"/>
	</clipPath>
	
		<linearGradient id="SVGID_4_" gradientUnits="userSpaceOnUse" x1="165.4155" y1="636.3668" x2="165.4155" y2="636.3189" gradientTransform="matrix(1004 0 0 -938 -166053.1875 596912)">
		<stop  offset="0" style="stop-color:#F8F8F8"/>
		<stop  offset="0.6" style="stop-color:#F8F8F8"/>
		<stop  offset="0.98" style="stop-color:#C0E0FF"/>
		<stop  offset="1" style="stop-color:#B0D0F0"/>
	</linearGradient>
	<path class="st1" d="M2.9,0h42.3C46.7,0,48,1.3,48,2.9V42c0,1.6-1.3,2.9-2.9,2.9H2.9C1.3,44.8,0,43.6,0,42V2.9C0,1.3,1.3,0,2.9,0z"
		/>
</g>
<path d="M13.6,11.1L13.6,11.1c0.5,0,1,0.4,1,1v3.3c0,0.5-0.4,1-1,1l0,0c-0.5,0-1-0.4-1-1V12C12.7,11.5,13.1,11.1,13.6,11.1z"/>
<path d="M34.4,11.1L34.4,11.1c0.5,0,1,0.4,1,1v3.3c0,0.5-0.4,1-1,1l0,0c-0.5,0-1-0.4-1-1V12C33.4,11.5,33.8,11.1,34.4,11.1z"/>
<path class="st2" d="M10.3,26.6c5.1,7.2,22.3,7.2,27.4,0"/>
</svg>
